# xmcd
#
# Track frame offsets: 
#        150
#        19577
#        42972
#        66552
#        80722
#        100640
#        116447
#        132197
#        188202
#
# Disc length: 3024 seconds
#
# Revision: 0
# Processed by: cddbd v1.5.2PL0 Copyright (c) Steve Scherf et al.
# Submitted via: ExactAudioCopy v1.0b1
#
DISCID=740bce09
DTITLE=Goldberg, Barry - Blues From Chicago - 1964-71
DYEAR=1996
DGENRE=Blues
TTITLE0=Sweet Home Chicago
TTITLE1=Big Boss Man
TTITLE2=Low Down Funk
TTITLE3=I'm Losing You
TTITLE4=Lost Love
TTITLE5=Hoochie Coochie Man
TTITLE6=You Got Me Cryin'
TTITLE7=I Got To Love My Woman
TTITLE8=Mass Ada Blues
EXTD=
EXTT0=
EXTT1=
EXTT2=
EXTT3=
EXTT4=
EXTT5=
EXTT6=
EXTT7=
EXTT8=
PLAYORDER=
